<svg width="43" height="43" viewBox="0 0 43 43" fill="none" xmlns="http://www.w3.org/2000/svg">
<path d="M36.434 35.7291C35.6904 34.2854 34.0394 32.1688 32.8201 30.9501C26.5683 24.6876 16.432 24.6876 10.1801 30.9501C8.96088 32.1688 7.30968 34.2854 6.566 35.7291M0.875 21.5C0.875 10.1 10.1091 0.875 21.5 0.875C32.8908 0.875 42.125 10.1 42.125 21.5C42.125 32.9 32.8908 42.125 21.5 42.125C10.1091 42.125 0.874998 32.9 0.875 21.5ZM29 17.75C29 21.8937 25.6421 25.25 21.5 25.25C17.3579 25.25 14 21.8937 14 17.75C14 13.6062 17.3579 10.25 21.5 10.25C25.6421 10.25 29 13.6062 29 17.75Z" stroke="#2D2D2D"/>
</svg>
